<?xml version="1.0" encoding="utf-8"?>
<!-- Generator: Adobe Illustrator 16.0.0, SVG Export Plug-In . SVG Version: 6.00 Build 0)  -->
<!DOCTYPE svg PUBLIC "-//W3C//DTD SVG 1.1//EN" "http://www.w3.org/Graphics/SVG/1.1/DTD/svg11.dtd">
<svg version="1.1" id="Layer_1" xmlns="http://www.w3.org/2000/svg" xmlns:xlink="http://www.w3.org/1999/xlink" x="0px" y="0px"
	 width="123px" height="146px" viewBox="0 0 123 146" enable-background="new 0 0 123 146" xml:space="preserve">
<g>
	<path fill="none" d="M97.882,107.247c-1.261-0.838-1.771-2.19-2.329-3.511c-0.469-2.126-1.659-4.104-1.716-6.316
		c-0.701,0.16-1.382,0.377-2.042,0.661c-0.266,0.085-0.511,0.238-0.754,0.397c0.256,1.395,1.238,2.369,2.225,3.34
		c0.086,0.276,0.18,0.572,0.288,0.904c0.079,0.789,0.989,2.083,1.337,3.11c-0.124,0.395-0.362,0.749-0.848,1.015
		c-0.001-0.001-0.001-0.001-0.001-0.001c-1.131-1.482-1.365-4.076-4.232-3.621c-0.34,2.24,1.638,3.159,2.176,4.767
		c0.561-0.6,1.239-0.772,2.024-0.557c1.438-0.266,2.6,0.174,3.567,1.113C97.479,108.066,97.55,107.626,97.882,107.247z"/>
	<path fill="none" d="M87.988,46.946c0.533-1.521,0.094-2.802-0.346-3.618c-0.218,0.2-0.436,0.4-0.652,0.601
		c-0.044,1.347-0.376,2.547-1.317,3.437C86.798,46.99,88.137,48.229,87.988,46.946z"/>
	<path fill="none" d="M71.649,59.085c0.568-0.145,1.126-0.324,1.625-0.564c0.363,0.052,0.764,0.067,1.188,0.067
		c1.66,0,1.999,0.318,1.999-1.596s-1.478-4.054-2.722-5.088c-1.074-0.893-1.934,1.587-2.18,3.537
		C72.795,56.688,72.477,57.893,71.649,59.085z"/>
	<path fill="#E6E6E6" d="M80.965,11.979c0.001,0.006,0.001,0.012,0.002,0.018c0.009,0.008,0.015,0.017,0.023,0.024L80.965,11.979z"
		/>
	<path fill="#E6E6E6" d="M42.97,96.025c0.018-0.006,0.033-0.012,0.05-0.018h0c0.003-0.021,0.008-0.043,0.011-0.064
		c-0.02,0.008-0.034,0.02-0.054,0.027C42.976,95.991,42.97,96.006,42.97,96.025z"/>
	<path fill="#E6E6E6" d="M31.935,110.908c-0.978,1.025-1.957,2.052-2.935,3.079c-0.986,0.704-1.971,1.357-2.958,2.061
		c0,0.001,0.001-0.048,0.002-0.048c0,0-0.001,0-0.001,0c-6.167,3-5.42,11.264-11.906,14.924c3.103,0.92,3.251-0.57,4.041-1.251
		C22.221,126.19,22,119.675,27,116.999c0-0.001,0,0.001,0,0.001h0.011c0.984-1,1.989-1.376,2.989-2.062c0-0.001,0-0.002,0-0.003
		c0,0.001-0.013,0.024-0.012,0.024c1.364-0.619,2.413-1.959,2.953-2.959c0,0,0.059,0,0.059,0v-0.023
		c0-0.917,1.074-1.942,0.898-2.749c-1.19-5.47,1.761-8.264,6.19-10.294c1.283-0.589,2.825-1.059,2.89-2.905
		C34.307,98.946,32.026,102.011,31.935,110.908z"/>
	<path fill="#E6E6E6" d="M64.507,89.569c-2.432-6.758-7.158-8.725-15.269-6.461C55.432,83.647,60.509,84.259,64.507,89.569z"/>
	<path fill="#E6E6E6" d="M55.082,73.021c2.131-3.325-0.16-6.146-1.042-9.128c-0.333-1.533-0.666-3.047-2.887-3.021
		C51.818,62.664,52.433,64,53.047,66c0,0-0.047,0-0.047,0s0-0.027,0-0.027C53,67.99,54.528,70,53.074,72c0,0-0.074,0-0.074,0v0.011
		c0,2.961-2.532,4.71-4.055,6.923c-4.852,3.174-7.262,7.289-5.5,13.287c0.324,1.103-0.241,2.472-0.424,3.722
		c2.131-0.875,2.461-2.812,1.843-4.511c-1.762-4.838,0.649-7.796,4.128-10.44C51.889,78.998,54.378,76.69,55.082,73.021z"/>
	<path fill="#E6E6E6" d="M106.047,106.998c2.809,2.127,5.622,4.258,9.451,7.157C113.196,109.051,110.675,106.497,106.047,106.998z"
		/>
	<path fill="#E6E6E6" d="M106.005,106.968c-0.017-0.002-0.032-0.002-0.05-0.003c0.005,0.015,0.011,0.024,0.016,0.039
		c0.026-0.003,0.051-0.003,0.076-0.006C106.033,106.987,106.02,106.978,106.005,106.968L106.005,106.968z"/>
	<path fill="#E6E6E6" d="M80.966,11.979c-0.001,0,0.024,0.042,0.024,0.042c0.009-0.006,0.019-0.013,0.027-0.019
		C81,11.993,80.983,11.989,80.966,11.979z"/>
	<path fill="#E6E6E6" d="M118.978,30.01c-0.686-0.991-1.37-1.981-2.056-2.972c-0.001,0.001-0.002,0.001-0.003,0.002
		c0.001,0,0.001-0.001,0.002-0.002c-0.566-1.401-1.598-2.36-2.908-3.051c-1.366-2.313-3.321-3.716-6.054-3.918c0,0,0,0,0,0.001
		c-0.668,0.004-1.336,0.009-2.003,0.013c-1.652-0.017-3.304-0.033-4.956-0.051c-3.281-3.398-5.132-8.21-9.961-10.079
		c-3.926-2.16-6.977-0.071-10.021,2.05c3.245,1.741,5.799-2.534,9.012-1.066c0,0,0,0,0.001,0c2.253,2.142,5.146,3.919,6.618,6.505
		c2.504,4.395,6.019,5.038,10.349,4.483c2.735-0.422,4.004,2.024,5.993,3.062c0.627,1.366,1.67,2.33,2.952,3.065
		c0.724,0.965,1.447,1.931,2.169,2.898c0.001-0.001,0.002-0.003,0.004-0.004c-0.001,0.001-0.002,0.002-0.002,0.003
		c1.257,1.947,2.034,4.301,4.842,5.027C121.63,33.986,120.304,31.998,118.978,30.01z"/>
	<path fill="#E6E6E6" d="M74.991,6.023C74.991,6.023,74.991,6.023,74.991,6.023c-1.888,0.242-3.712,0.566-3.945,2.991
		c0,0,0.001,0,0.001,0c-1.359,3.127-4.185,4.535-6.994,5.961c-1.618,0.821-3.866,1.341-4.354,3.068
		c-1.075,3.814-4.325,4.619-7.145,6.208c-3.851,2.169-8.015,4.065-9.703,8.681c-2.778,8.701-0.829,18.168,5.504,22.285
		c-3.31-7.302-3.231-14.282-4.275-21.086c0,0,0,0,0.001,0c3.674-3.634,8.129-6.175,12.288-9.14
		c5.146-3.67,9.648-8.322,14.913-11.983c0.839-0.584,1.1-2,1.629-3.032c1.504-1.272,1.905,1.177,3.107,0.922c0,0,0,0,0.001-0.001
		c1.278,0.189,1.712,0.973,1.949,2.157c1.043-0.261,2.087-0.178,3.131,0.073c-0.044-0.377-0.089-0.754-0.133-1.131
		c-1.75-1.614-0.467-4.227-1.936-5.934C79.031,6.062,75.806,5.349,74.991,6.023z"/>
	<polygon fill="#E6E6E6" points="76.069,88.988 76.069,88.992 76.07,88.993 	"/>
	<path fill="#E6E6E6" d="M63.851,22.883c-0.094,0.482-0.155,0.965-0.249,1.447c2.129,0.525,4.274,1.03,6.403,1.556
		C71.307,26.598,72.652,27,73.955,28H74c0,0,0,0.039,0,0.04c1,1.667,2.364,3.149,5.034,2.42c-1.338-1.15-2.758-2.3-4.096-3.451
		C73.943,25.775,73,25.127,71,24.911c0,0,0-0.001,0-0.001C69,23.36,66.187,24.028,63.851,22.883z"/>
	<path fill="#E6E6E6" d="M50.573,57.6c-0.46-1.131-1.268-1.811-3.026-1.239c0.5,1.314,1.112,2.229,2.413,2.228
		C50.179,58.587,50.665,57.826,50.573,57.6z"/>
	<path fill="#E6E6E6" d="M120.946,64.009C120.946,64.009,120.946,64.01,120.946,64.009c-0.975-0.692-1.947-1.385-2.922-2.078
		c0,0,0,0,0-0.001c-2.693-3.619-3.136-9.259-9.003-10.026c-6.256-3.226-9.2-8.75-10.855-15.286
		c-0.494-1.951-1.819-3.505-4.145-3.644c-2.655-1.737-5.434-0.937-8.93-0.627C87.199,34.492,89,33.872,91,33.94c0,0,0-0.001,0-0.001
		c0,0,0,0.001,0,0.001c4-0.085,5.61,2.29,6.272,5.719c1.301,6.729,5.036,11.293,11.706,13.279c3.936,2.34,5.342,6.714,8.058,10.033
		c1.41,1.222,0.261,4.988,3.937,3.961C124.746,65.922,121.205,64.982,120.946,64.009z"/>
</g>
<path fill="#E6E6E6" d="M86.848,45.131c-0.104,0.091-0.209,0.179-0.32,0.256c0.094-0.01,0.194-0.019,0.278-0.029
	C86.824,45.284,86.832,45.206,86.848,45.131z"/>
<g>
	<path fill="none" d="M73.739,51.904c-1.074-0.893-1.934,1.587-2.18,3.537c1.235,1.246,0.917,2.452,0.09,3.644
		c0.568-0.145,1.126-0.324,1.625-0.564c0.363,0.052,0.764,0.067,1.188,0.067c1.66,0,1.999,0.318,1.999-1.596
		S74.983,52.938,73.739,51.904z"/>
	<path fill="none" d="M95.553,103.736c-0.469-2.126-1.659-4.104-1.716-6.316c-0.701,0.16-1.382,0.377-2.042,0.661
		c-0.266,0.085-0.511,0.238-0.754,0.397c0.256,1.395,1.238,2.369,2.225,3.34c0.086,0.276,0.18,0.572,0.288,0.904
		c0.079,0.789,0.989,2.083,1.337,3.11c-0.124,0.395-0.362,0.749-0.848,1.015c-0.001-0.001-0.001-0.001-0.001-0.001
		c-1.131-1.482-1.365-4.076-4.232-3.621c-0.34,2.24,1.638,3.159,2.176,4.767c0.561-0.6,1.239-0.772,2.024-0.557
		c1.438-0.266,2.6,0.174,3.567,1.113c-0.099-0.482-0.027-0.923,0.305-1.302C96.621,106.409,96.11,105.057,95.553,103.736z"/>
</g>
<path fill="#E6E6E6" d="M100,106.085c0,0,0,0.017,0,0.019C97,103.611,98.269,100,96.863,97c-0.001,0-0.001,0-0.002,0
	c-0.645-2-1.328-4.675-1.973-7.005C95.048,87.146,94,84.508,93,81.974v-0.005c0-1.982-0.738-3.945-1.127-5.928
	C92.174,72.491,90.546,69,89.864,66c0,0,0.01,0,0.009,0c4.454-5,1.587-9.808,0.758-14.523c-0.485-2.76,0.972-6.566-2.599-8.499
	c-0.089-0.059-0.642-0.403-1.014-0.639L84,22h-3.035l3.229,23.112c-0.4,0.315-0.949,0.89-0.944,0.95
	c0.08,1.066,0.452,1.627,1.328,1.797l1.103,7.892c-0.228,0.396-0.545,0.753-1.015,1.066c-0.195-0.138-0.378-0.225-0.575-0.252
	c-0.038-1.244,0.209-2.431,0.878-3.532c0.005-0.347,0.013-0.693,0.018-1.04c-0.111-0.569-0.446-0.916-1.017-1.034
	c-1.58-1.397-2.976-3.148-4.791-4.096c-1.876-0.979-4.188-3.321-6.18,0.083C71.488,47.996,72,49.616,72,50.987c0,0,0,0.001,0,0.001
	c-1,1.711-3.768,2.43-2.02,5.063c0.006,1.312-0.004,2.623,0.002,3.934c-0.658,0.02-1.324,0.039-1.981,0.059
	c-1.07-0.205-2.294,0.143-2.933-1.286c-1.456-3.254-4.46-5.474-5.884-8.836c-0.655-1.547-2.108-3.176-4.265-2.702
	c-1.88,0.413-2.275,2.262-2.751,3.797c-0.281,0.904-0.097,1.953-0.122,2.937c1.941-0.7,1.832-2.472,2.141-4.037
	c0.015-0.078,0.298-0.164,0.437-0.139c0.143,0.026,2.217-0.749,2.924,0.509c1.359,2.417-0.511,3.945-1.624,5.673h0
	c-0.377-0.272-0.757-0.278-1.142-0.017c-0.067,0-0.116,0.134-0.147,0.401c-0.029,0.257,0.078,0.492,0.323,0.706
	c0.641,0.992,1.281,1.985,1.922,2.976c0,0,0,0.001,0,0.001c0.275,2.756,3.151,3.699,4.146,5.952c0.918,1.432,2.38,1.834,3.928,2.072
	c0,0,0,0,0,0.001c1.982,0.99,3.965,1.981,5.948,2.972h0.001c2.749,4.938-2.621,3.291-4.021,4.837C65.312,77.334,66,79.177,66,80.904
	V81h0.066c0.285,0,0.602,1,0.887,1h0.017c1.327,4,2.664,7.282,3.992,10.938C69.329,93.252,67.399,92,66.098,94h0.003
	C66.044,94,66,94.656,66,94.977v0.011c-3-1.322-5.328-1.381-8.945-0.459c3.521,0.555,6.234,0.984,8.947,1.411
	c1.154,0.859,1.409,2.601,2.98,3.053c3.046-0.071,5.466,5.495,9.005,1.001c-3.061,0.939-5.04-2.577-8.025-1.944
	c-0.001,0-0.002,0.001-0.003,0.002c0.001-0.001,0.002-0.002,0.003-0.003c-1.18-0.676-1.988-1.597-1.967-3.044
	C69.001,94.973,70,94.942,71,94.912C71,94.911,71,95,71,95h0.012c1.155,0,3.312,2.324,2.32-1.188
	c-0.779-2.762-2.078-5.409-3.332-8.614c3.008,0.562,5,1.648,6,3.794V89h0.034c0.183,3-1.205,7.228,1.938,10.135
	c0.667-0.065,1.343-0.134,2.01-0.199c0.114,0,0.23-0.097,0.342-0.287c0.111-0.191,0.002-0.383-0.337-0.574
	c-4.177-2.211-0.928-6.184-2.152-9.096h-0.001c-0.262-0.627-0.522-1.255-0.785-1.884l0.001,0.001
	c1.744-0.245,3.414-0.071,4.946,0.88c2.381,3.649,3.851,7.895,7.145,10.948c-0.092,1.071,2.052,2.124,0.763,2.813
	c-4.198,2.246-0.655,4.174-0.026,6.226c-0.884,0.134-2.338-0.261-2.331,0.971c0.009,1.494,1.294,0.854,2.16,0.632
	c0.775-0.199,1.294-0.439,2.294-0.661c0-0.001,0,0.096,0,0.096h0.015c2.305-1,4.582,2.691,6.908,0.018
	c2.028-1.773,4.452-2.291,7.056-2.028C104.58,102.729,102,107.029,100,106.085z M74.462,58.588c-0.424,0-0.824-0.015-1.188-0.067
	c-0.499,0.24-1.057,0.419-1.625,0.564c0.827-1.192,1.146-2.397-0.09-3.644c0.246-1.95,1.105-4.43,2.18-3.537
	c1.244,1.034,2.722,3.174,2.722,5.088S76.122,58.588,74.462,58.588z M88.5,46.875c0.01,0.084-0.018,0.161-0.062,0.23
	c-0.012,0.021-0.03,0.039-0.045,0.058c-0.033,0.038-0.07,0.072-0.111,0.104c-0.021,0.015-0.036,0.032-0.06,0.045
	c-0.164,0.109-0.354,0.18-0.435,0.206l-0.009-0.062c-0.583,0.116-1.441,0.087-2.318,0.087c-0.545,0-0.842-0.12-1.008-0.305
	c-0.161-0.065-0.193-0.146-0.141-0.238c-0.106-0.329-0.014-0.758-0.014-1.149c0-0.408,1.8,0.967,2.655,0.336
	c0.763-0.562-0.551-3.134,0.171-3.134c0.788,0,1.128,0.808,1.274,1.697C88.647,45.366,88.78,46.076,88.5,46.875z M97.577,108.549
	c-0.968-0.939-2.13-1.379-3.567-1.113c-0.785-0.216-1.464-0.043-2.024,0.557c-0.538-1.607-2.516-2.526-2.176-4.767
	c2.867-0.455,3.102,2.139,4.232,3.621c0,0,0,0,0.001,0.001c0.485-0.266,0.724-0.62,0.848-1.015c-0.348-1.027-1.258-2.321-1.337-3.11
	c-0.108-0.332-0.202-0.628-0.288-0.904c-0.986-0.971-1.969-1.945-2.225-3.34c0.243-0.159,0.488-0.312,0.754-0.397
	c0.66-0.284,1.341-0.501,2.042-0.661c0.057,2.213,1.247,4.19,1.716,6.316c0.558,1.32,1.068,2.673,2.329,3.511
	C97.55,107.626,97.479,108.066,97.577,108.549z"/>
</svg>
