<?xml version="1.0" encoding="utf-8"?>
<!-- Generator: Adobe Illustrator 16.0.0, SVG Export Plug-In . SVG Version: 6.00 Build 0)  -->
<!DOCTYPE svg PUBLIC "-//W3C//DTD SVG 1.1//EN" "http://www.w3.org/Graphics/SVG/1.1/DTD/svg11.dtd">
<svg version="1.1" id="Layer_1" xmlns="http://www.w3.org/2000/svg" xmlns:xlink="http://www.w3.org/1999/xlink" x="0px" y="0px"
	 width="360px" height="206px" viewBox="0 0 360 206" enable-background="new 0 0 360 206" xml:space="preserve">
<path fill-rule="evenodd" clip-rule="evenodd" d="M108.82,103.359c0.269-4.354,0.233-8.381,0.806-12.32
	c3.437-23.674,16.559-40.752,37.189-51.854c15.676-8.437,32.84-11.675,50.319-7.335c20.442,5.074,36.664,16.026,45.02,36.593
	c4.625,11.385,7.95,23.024,8.384,35.257c0.422,11.904-3.062,23.079-8.939,33.349c-10.229,17.877-25.346,30.194-45.254,35.193
	c-18.883,4.742-37.927,4.097-54.618-7.47c-17.569-12.174-30.114-28.124-32.664-50.3c-0.096-0.826-0.224-1.654-0.231-2.483
	C108.804,108.99,108.82,105.991,108.82,103.359z M112.809,100.426c-1.371,19.249,3.482,33.804,15.452,47.226
	c3.095,3.471,6.653,6.525,9.979,9.79c7.548,7.408,17.144,10.667,27.075,12.975c9.099,2.114,18.359,0.838,27.151-1.328
	c28.613-7.047,51.471-29.628,54.038-60.777c1.811-21.973-5.303-42.393-20.87-57.977c-12.478-12.49-29.101-17.432-47.186-16.115
	c-8.743,0.636-16.993,2.899-25.214,5.749c-15.213,5.273-25.478,15.993-32.871,29.696C114.996,79.614,112.107,90.353,112.809,100.426
	z"/>
<path fill-rule="evenodd" clip-rule="evenodd" fill="none" d="M112.809,100.426c-0.701-10.073,2.188-20.812,7.556-30.762
	c7.394-13.703,17.658-24.423,32.871-29.696c8.221-2.85,16.471-5.113,25.214-5.749c18.085-1.316,34.708,3.625,47.186,16.115
	c15.567,15.584,22.681,36.004,20.87,57.977c-2.567,31.149-25.425,53.73-54.038,60.777c-8.792,2.166-18.053,3.442-27.151,1.328
	c-9.932-2.308-19.527-5.566-27.075-12.975c-3.326-3.265-6.885-6.319-9.979-9.79C116.291,134.229,111.438,119.675,112.809,100.426z
	 M117.252,99.599c-0.785,29.077,9.661,43.772,28.858,57.595c14.593,10.507,31.638,10.862,48.399,6.597
	c17.555-4.467,30.865-15.313,39.754-31.171c5.557-9.911,8.478-20.577,7.557-32.091c-0.75-9.382-3.242-18.297-6.729-27.014
	c-7.85-19.622-22.986-29.817-43.082-33.735c-14.173-2.763-27.594,0.05-40.246,6.296c-11.253,5.555-20.486,13.754-26.636,24.831
	C119.716,80.654,116.759,91.19,117.252,99.599z"/>
<path fill-rule="evenodd" clip-rule="evenodd" d="M117.252,99.599c-0.493-8.408,2.464-18.944,7.875-28.692
	c6.149-11.077,15.383-19.276,26.636-24.831c12.652-6.246,26.073-9.059,40.246-6.296c20.096,3.918,35.232,14.113,43.082,33.735
	c3.487,8.717,5.979,17.632,6.729,27.014c0.921,11.514-2,22.18-7.557,32.091c-8.889,15.857-22.199,26.704-39.754,31.171
	c-16.762,4.266-33.807,3.91-48.399-6.597C126.913,143.371,116.467,128.676,117.252,99.599z M120.703,100.551
	c-2.006,24.374,9.116,40.934,26.839,53.723c13.962,10.075,29.738,10.249,45.819,6.267c9.943-2.463,18.261-7.967,25.821-14.646
	c12.811-11.315,19.44-25.875,19.606-42.688c0.133-13.496-4.246-26.23-11.532-37.723c-2.213-3.49-4.519-7.24-7.671-9.759
	c-11.648-9.305-24.838-14.476-40.102-13.544c-8.086,0.494-15.682,2.616-23.283,5.224c-13.245,4.545-22.121,13.915-28.629,25.689
	C122.682,81.939,120.071,91.581,120.703,100.551z"/>
<path fill-rule="evenodd" clip-rule="evenodd" fill="none" d="M120.703,100.551c-0.632-8.97,1.979-18.611,6.869-27.457
	c6.508-11.774,15.384-21.145,28.629-25.689c7.602-2.607,15.197-4.729,23.283-5.224c15.264-0.932,28.453,4.239,40.102,13.544
	c3.152,2.519,5.458,6.269,7.671,9.759c7.286,11.492,11.665,24.227,11.532,37.723c-0.166,16.813-6.796,31.373-19.606,42.688
	c-7.561,6.679-15.878,12.183-25.821,14.646c-16.081,3.982-31.857,3.809-45.819-6.267
	C129.819,141.484,118.697,124.925,120.703,100.551z M197.399,128.905c-0.003,0.182-0.005,0.364-0.007,0.547
	c-3.823,0.185-7.644,0.448-11.469,0.539c-8.461,0.2-8.32,0.163-8.426-8.2c-0.037-2.973,1.03-4.654,3.624-5.772
	c2.136-0.921,4.133-2.17,6.276-3.071c10.114-4.252,16.576-12.021,20.969-21.743c3.927-8.692,1.71-18.29-5.524-24.376
	c-6.846-5.757-15.128-6.555-23.168-4.792c-8.298,1.818-15.991,5.74-20.57,13.676c-0.515,0.892-0.49,2.096-0.716,3.155
	c1.07,0.142,2.143,0.417,3.211,0.399c2.99-0.048,5.979-0.194,8.968-0.346c2.237-0.113,3.292,0.709,3.358,3.141
	c0.262,9.643,0.543,19.288,1.118,28.914c0.224,3.734-1.495,5.196-4.625,6.54c-5.944,2.554-11.692,5.57-17.47,8.498
	c-0.679,0.345-1.024,1.344-1.525,2.038c0.787,0.021,1.672,0.286,2.346,0.021c4.945-1.956,9.79-4.18,14.78-6.009
	c7.198-2.638,6.171-3.719,6.595,4.823c0.15,3.017-0.898,4.108-3.917,4.226c-4.812,0.188-9.612,0.77-14.411,1.245
	c-4.956,0.491-9.903,1.076-14.859,1.576c-3.181,0.321-3.412,2.008-2.26,4.505c2.397,5.19,6.277,8.923,11.229,11.647
	c10.856,5.972,22.689,8.24,34.759,7.006c14.982-1.531,26.495-9.071,33.269-23.065c1.22-2.519,0.588-3.796-1.735-4.515
	c-1.382-0.427-2.896-0.562-4.353-0.581C207.711,128.864,202.555,128.905,197.399,128.905z M217.898,82.775
	c-2.011,2.25-3.274,3.664-4.538,5.078c1.507,1.254,3.01,3.479,4.522,3.485c1.482,0.007,2.976-2.242,4.464-3.502
	C221.108,86.428,219.87,85.019,217.898,82.775z M217.046,74.737c2.143-2.436,4.131-3.707,4.479-5.331
	c0.479-2.229-1.465-3.485-3.759-3.544c-2.356-0.06-4.724,0.701-4.555,3.313C213.313,70.738,215.2,72.186,217.046,74.737z"/>
<path fill-rule="evenodd" clip-rule="evenodd" d="M197.399,128.905c5.155,0,10.312-0.041,15.467,0.025
	c1.457,0.019,2.971,0.154,4.353,0.581c2.323,0.719,2.955,1.996,1.735,4.515c-6.773,13.994-18.286,21.534-33.269,23.065
	c-12.069,1.234-23.902-1.034-34.759-7.006c-4.952-2.725-8.832-6.457-11.229-11.647c-1.152-2.497-0.921-4.184,2.26-4.505
	c4.956-0.5,9.903-1.085,14.859-1.576c4.799-0.476,9.599-1.057,14.411-1.245c3.019-0.117,4.067-1.209,3.917-4.226
	c-0.424-8.542,0.604-7.461-6.595-4.823c-4.99,1.829-9.835,4.053-14.78,6.009c-0.674,0.266-1.559,0-2.346-0.021
	c0.501-0.694,0.847-1.693,1.525-2.038c5.777-2.928,11.525-5.944,17.47-8.498c3.13-1.344,4.849-2.806,4.625-6.54
	c-0.575-9.626-0.856-19.271-1.118-28.914c-0.066-2.432-1.121-3.254-3.358-3.141c-2.988,0.151-5.978,0.298-8.968,0.346
	c-1.068,0.018-2.141-0.258-3.211-0.399c0.226-1.06,0.201-2.264,0.716-3.155c4.579-7.936,12.272-11.857,20.57-13.676
	c8.04-1.763,16.322-0.965,23.168,4.792c7.234,6.086,9.451,15.684,5.524,24.376c-4.393,9.722-10.854,17.491-20.969,21.743
	c-2.144,0.901-4.141,2.15-6.276,3.071c-2.594,1.118-3.661,2.8-3.624,5.772c0.105,8.363-0.035,8.4,8.426,8.2
	c3.825-0.091,7.646-0.354,11.469-0.539C197.395,129.27,197.396,129.087,197.399,128.905z M177.657,104.404
	c0,2.077-0.112,4.42,0.091,6.735c0.043,0.491,1.509,1.418,1.867,1.239c10.644-5.313,20.008-11.989,24.631-23.619
	c2.782-6.999,1.094-14.131-4.607-18.928c-8.462-7.121-29.37-4.532-34.794,4.344c-0.222,0.364-0.141,1.303,0.144,1.518
	c1.222,0.921,7.792-0.096,8.656-1.216c0.455-0.591,0.937-1.162,1.406-1.743c0.342,0.835,0.934,1.653,0.985,2.506
	C176.619,84.873,177.121,94.513,177.657,104.404z M154.785,136.061c0,0.097,0.001,0.192,0.002,0.289
	c-3.322,0-6.654-0.144-9.966,0.051c-2.115,0.124-3.273,1.355-1.253,3.114c3.108,2.705,6.155,5.703,9.749,7.58
	c9.487,4.954,19.905,7.138,30.463,6.246c12.763-1.078,23.669-6.342,30.455-18.015c0.48-0.827,0.709-1.8,1.056-2.704
	c-0.912-0.141-1.836-0.454-2.735-0.396C193.297,133.479,174.041,134.774,154.785,136.061z"/>
<path fill-rule="evenodd" clip-rule="evenodd" d="M217.898,82.775c1.972,2.243,3.21,3.652,4.448,5.062
	c-1.488,1.26-2.981,3.509-4.464,3.502c-1.513-0.007-3.016-2.231-4.522-3.485C214.624,86.439,215.888,85.025,217.898,82.775z"/>
<path fill-rule="evenodd" clip-rule="evenodd" d="M217.046,74.737c-1.846-2.552-3.732-3.999-3.834-5.562
	c-0.169-2.612,2.198-3.373,4.555-3.313c2.294,0.059,4.237,1.315,3.759,3.544C221.177,71.03,219.188,72.302,217.046,74.737z"/>
<path fill-rule="evenodd" clip-rule="evenodd" fill="none" d="M177.657,104.404c-0.536-9.892-1.038-19.531-1.621-29.164
	c-0.052-0.853-0.644-1.671-0.985-2.506c-0.47,0.581-0.951,1.152-1.406,1.743c-0.864,1.12-7.435,2.137-8.656,1.216
	c-0.284-0.215-0.365-1.153-0.144-1.518c5.424-8.876,26.332-11.465,34.794-4.344c5.701,4.797,7.39,11.929,4.607,18.928
	c-4.623,11.63-13.987,18.306-24.631,23.619c-0.358,0.179-1.824-0.748-1.867-1.239C177.545,108.824,177.657,106.481,177.657,104.404z
	"/>
<path fill-rule="evenodd" clip-rule="evenodd" fill="none" d="M154.785,136.061c19.256-1.286,38.512-2.581,57.771-3.834
	c0.899-0.059,1.823,0.255,2.735,0.396c-0.347,0.904-0.575,1.877-1.056,2.704c-6.786,11.673-17.692,16.937-30.455,18.015
	c-10.558,0.892-20.976-1.292-30.463-6.246c-3.594-1.877-6.641-4.875-9.749-7.58c-2.021-1.759-0.862-2.99,1.253-3.114
	c3.312-0.194,6.644-0.051,9.966-0.051C154.786,136.253,154.785,136.157,154.785,136.061z"/>
</svg>
