<?xml version="1.0" encoding="utf-8"?>
<!-- Generator: Adobe Illustrator 16.0.0, SVG Export Plug-In . SVG Version: 6.00 Build 0)  -->
<!DOCTYPE svg PUBLIC "-//W3C//DTD SVG 1.1//EN" "http://www.w3.org/Graphics/SVG/1.1/DTD/svg11.dtd">
<svg version="1.1" id="Layer_1" xmlns="http://www.w3.org/2000/svg" xmlns:xlink="http://www.w3.org/1999/xlink" x="0px" y="0px"
	 width="123px" height="146px" viewBox="0 0 123 146" enable-background="new 0 0 123 146" xml:space="preserve">
<polygon fill-rule="evenodd" clip-rule="evenodd" fill="#E6E6E6" points="54.106,47.229 54.107,47.228 54.106,47.229 "/>
<path fill-rule="evenodd" clip-rule="evenodd" fill="#E6E6E6" d="M40.456,62.508c0.333,0.303,0.667,0.605,1,0.908
	c4.512-3.808,8.865-8.636,13.377-12.443c0.338,0.5,0.41-3.343-0.727-3.745c-0.467,0.691-1.038,1.362-1.637,2.027
	C48.474,53.681,44.461,58.091,40.456,62.508z"/>
<path fill-rule="evenodd" clip-rule="evenodd" fill="#E6E6E6" d="M54.107,47.228c0.066-0.105,0.132-0.19,0.197-0.268
	c-0.003-0.005-0.006-0.01-0.009-0.016C54.235,47.04,54.17,47.134,54.107,47.228z"/>
<polygon fill-rule="evenodd" clip-rule="evenodd" fill="#E6E6E6" points="64.995,35 64.989,34.992 64.988,34.992 "/>
<path fill-rule="evenodd" clip-rule="evenodd" fill="#E6E6E6" d="M54.993,51.993c0.336-0.001,0.673-0.001,1.009-0.002
	c-1.231,10.243-5.656,19.391-9.839,28.619c-1.117,2.462-2.334,4.88-4.157,7.024C44.989,75.227,50.164,63.672,54.993,51.993z"/>
<path fill-rule="evenodd" clip-rule="evenodd" fill="#E6E6E6" d="M59.988,48.472c1.146,0.679,1.716,1.739,1.983,3l0.025-0.034
	c-2.127,7.471-0.487,15.108-1.002,22.651c-0.253,3.702,0.938,28.16-1.163,31.578c-0.529,0.003-1.059,0.007-1.589,0.011
	c0-8.87-0.235-38.314-0.235-47.183c1.671-0.429,1.45,0.838,1.465,1.734c0.053,2.985,0.018,5.971,0.021,8.473
	c-0.127-3.76,0.343-8.028-0.51-12.244c0.064-2.703-0.252-5.454,1.025-8.001L59.988,48.472z"/>
<path fill-rule="evenodd" clip-rule="evenodd" fill="#E6E6E6" d="M67.969,79.009c-2.798-9.174-4.058-18.675-5.973-28.036
	c0-0.001-0.025,0.033-0.025,0.033c2.51-0.264,2.32,1.87,2.858,3.289c3.02,7.956,3.457,16.453,5.121,24.694
	C69.296,79.656,68.633,79.312,67.969,79.009z"/>
<path fill-rule="evenodd" clip-rule="evenodd" fill="#E6E6E6" d="M67.807,51.425c5.133,4.909,8.779,10.722,11.516,17.132
	C74.317,63.601,69.247,58.704,67.807,51.425z"/>
<path fill-rule="evenodd" clip-rule="evenodd" fill="#E6E6E6" d="M89.594,34.181c-3.957,3.547-8.895,3.615-13.544,4.588
	c-0.806,0.169-1.781-0.004-2.101-0.921c-0.461-1.325,0.653-1.797,1.568-2.071C80.097,34.404,84.777,33.778,89.594,34.181z"/>
<path fill-rule="evenodd" clip-rule="evenodd" fill="#E6E6E6" d="M64.995,35c1.982-6.645,8.964-8.86,12.215-14.382
	c-0.543,5.692-7.372,13.391-12.222,14.374C64.988,34.992,64.995,35,64.995,35z"/>
<path fill-rule="evenodd" clip-rule="evenodd" fill="#E6E6E6" d="M85.688,52.16c-4.705-1.975-9.422-3.92-14.102-5.951
	c-0.861-0.374-1.982-0.944-1.516-2.189c0.341-0.909,1.39-0.961,2.141-0.609c4.854,2.277,9.861,4.305,14.251,7.395
	C86.205,51.257,85.946,51.708,85.688,52.16z"/>
<path fill-rule="evenodd" clip-rule="evenodd" fill="#E6E6E6" d="M37.509,47.406c3.445-0.233,6.704-1.099,9.948-2.017
	c2.643-0.747,5.66-0.979,6.521-4.382C48.031,41.892,42.433,43.688,37.509,47.406z"/>
<path fill-rule="evenodd" clip-rule="evenodd" fill="#E6E6E6" d="M53.986,40.985c-0.002,0.008-0.005,0.015-0.007,0.023
	c0.008-0.001,0.016-0.003,0.024-0.004L53.986,40.985z"/>
<path fill-rule="evenodd" clip-rule="evenodd" fill="#E6E6E6" d="M49.58,19.556c3.206,2.968,5.162,6.946,7.618,10.512
	c0.475,0.689,0.549,1.668-0.368,2.146c-0.904,0.471-1.658-0.181-2.1-0.859c-2.298-3.528-4.524-7.102-6.775-10.659
	C48.496,20.316,49.038,19.936,49.58,19.556z"/>
<path fill-rule="evenodd" clip-rule="evenodd" fill="#E6E6E6" d="M35.75,29.696c6.091-0.339,9.836,2.147,13.765,3.96
	c0.75,0.346,1.281,1.248,0.731,2.051c-0.249,0.362-1.288,0.575-1.717,0.358C44.693,34.127,40.367,33.082,35.75,29.696z"/>
<path fill-rule="evenodd" clip-rule="evenodd" fill="#E6E6E6" d="M57.322,126.469c-0.726-4.588,1.199-9.092,0.805-13.677
	c-0.069-0.807,0.305-1.82,1.359-1.635c1.193,0.21,1.454,1.437,1.319,2.373c-0.627,4.37-1.399,8.718-2.12,13.074
	C58.23,126.56,57.776,126.515,57.322,126.469z"/>
<path fill-rule="evenodd" clip-rule="evenodd" fill="#E6E6E6" d="M58.955,90.349c1.87,4.478,2.282,8.072,1.786,11.806
	c-0.111,0.839-0.501,1.632-1.493,1.629c-0.825-0.003-1.079-0.79-1.089-1.41C58.096,98.718,57.433,95.01,58.955,90.349z"/>
<path fill-rule="evenodd" clip-rule="evenodd" fill="#E6E6E6" d="M61.442,17.129c1.617,0.504,1.823,1.331,2.035,2.108
	c0.782,2.866,0.235,5.705-1.065,8.172c-0.869,1.647-2.313-0.147-1.967-3.192c0.131-1.149,0.33-2.291,0.492-3.437
	C61.096,19.662,61.247,18.542,61.442,17.129z"/>
<path fill-rule="evenodd" clip-rule="evenodd" fill="#E6E6E6" d="M67.969,79.009c0.661-0.007,1.321-0.013,1.981-0.02
	c0.509,3.511,1.018,7.022,1.525,10.534C68.78,86.464,68.004,82.852,67.969,79.009z"/>
<path fill-rule="evenodd" clip-rule="evenodd" fill="#E6E6E6" d="M58.983,55.992c2.17,6.116,0.33,12.383,0.78,18.573
	c-1.741-5.403,0.512-11.2-1.756-16.537C58.332,57.349,58.658,56.67,58.983,55.992z"/>
<path fill-rule="evenodd" clip-rule="evenodd" fill="#E6E6E6" d="M64.989,34.992c0.002,0.002,0.004,0.005,0.006,0.008L64.989,34.992
	C64.988,34.992,64.989,34.992,64.989,34.992c-1.921-2.739-3.618-6.718-6.949-1.131c-0.28,0.47-1.097,0.799-1.701,0.868
	c-4.962,0.565-4.691,3.018-2.335,6.274c1.149,2.206,1.149,6.225,2.291,7.157c1.956-0.41,5.095-0.872,5.539-0.669
	c3.708,1.691,6.109,1.519,5.64-3.494c-0.041-0.439,0.227-1.018,0.537-1.364C72.125,38.042,69.906,35.991,64.989,34.992z
	 M65.813,46.111c-4.167-2.038-4.227-2.043-8.288,0.204c0.533-0.295,0.391-3.693,0.181-4.335c-0.449-1.372-1.773-2.235-2.554-3.368
	c3.125-1.261,4.663-1.913,6.2-5.157c2.175,4.099,2.219,4.139,6.828,4.708C64.955,41.497,64.931,41.551,65.813,46.111z"/>
</svg>
