<?xml version="1.0" encoding="utf-8"?>
<!-- Generator: Adobe Illustrator 16.0.0, SVG Export Plug-In . SVG Version: 6.00 Build 0)  -->
<!DOCTYPE svg PUBLIC "-//W3C//DTD SVG 1.1//EN" "http://www.w3.org/Graphics/SVG/1.1/DTD/svg11.dtd">
<svg version="1.1" xmlns="http://www.w3.org/2000/svg" xmlns:xlink="http://www.w3.org/1999/xlink" x="0px" y="0px" width="123px"
	 height="146px" viewBox="0 0 123 146" enable-background="new 0 0 123 146" xml:space="preserve">
<g id="Layer_1">
	<path fill-rule="evenodd" clip-rule="evenodd" fill="#E6E6E6" d="M96.133,76.577c-3.027-0.32-6.15-0.379-8.615-3.397
		C90.998,73.367,93.664,74.699,96.133,76.577z"/>
	<ellipse fill-rule="evenodd" clip-rule="evenodd" fill="#E6E6E6" cx="31.718" cy="86.916" rx="5.282" ry="4.917"/>
	<path fill-rule="evenodd" clip-rule="evenodd" fill="#E6E6E6" d="M51.911,76.654c0,0.469-5.016,0.772-14.911,0.772
		s-16.167-0.381-16.167-0.85c0-0.47,6.959-1.698,16.854-1.698S51.911,76.185,51.911,76.654z"/>
	<g>
		<path fill="none" d="M96.133,68.125c-1.28-0.411-4.041-0.805-7.03-1.141c0.271-0.294,0.538-0.618,0.807-0.957
			c-0.001,0-0.001,0-0.001,0c-2.821,1.056-5.257,0.813-6.912-2.056c0-0.027,0-0.055,0-0.083c-0.055,0.014-0.109,0.03-0.164,0.044
			c-8.476-1.864-16.744-4.625-25.405-5.716c-2.333-0.293-3.383,1.154-4.47,2.521c-1.085,1.364,0.307,2.242,1.262,2.639
			c1.661,0.688,1.423-0.473,1.187-1.551c-0.402-1.833,0.936-1.808,2.117-1.84c0.42-0.011,0.837,0.015,1.204,0.106
			c0.05,0.012,0.1,0.023,0.15,0.036c0.652,0.207,1.093,0.679,0.965,1.68c-0.192,1.516-0.253,2.231,1.649,1.527
			c2.182-0.808,2.551,0.688,2.521,2.412c-0.033,1.882-0.88,2.329-2.561,1.531c-0.597-0.284-1.566-0.366-1.718,0.342
			c-0.156,0.726,0.202,1.622,0.51,2.373c0.356,0.867,1.262,1.093,1.854,0.733L99,70.015C99,70.015,99.641,69.25,96.133,68.125z"/>
		<path fill="none" d="M50.796,56.293c1.726,0-0.129,0.104-0.129-1.46s0.236-3.407-1.042-2.247
			c-0.938,0.851-1.187,1.837-1.312,2.788C48.174,56.423,49.07,56.293,50.796,56.293z"/>
		<path fill="none" d="M85.245,63.106c-0.017-0.045-0.015-0.08-0.022-0.119C85.119,63.241,85.398,63.533,85.245,63.106z"/>
		<path fill="none" d="M51.937,68.953C51.938,68.953,51.938,68.952,51.937,68.953c-1.098-1.594-0.732-3.521-1.212-5.246
			c-0.466-1.673-1.572-3.292-3.348-3.217c-2.335,0.098-1.16,2.268-1.349,3.531c-0.193,1.293-0.021,2.641-0.008,3.963
			c-1.387,1.092-1.164,2.495-0.76,3.932c1.796-1.48,3.832,0.122,5.707-0.446c1.438-0.436,1.709-1.269,0.972-2.517
			C51.938,68.953,51.938,68.953,51.937,68.953z"/>
		<path fill="none" d="M114.864,57.072c-1.552,0.24-1.893,1.671-2.318,2.895c-0.881,2.532-1.22,5.36-3.381,7.167
			c2.543,0.086,5.029,0.592,7.526,1.049c0.15,0.054,0.291,0.12,0.436,0.182c0.34-1.205,1.303-2.105,1.8-3.237
			c0.914-2.08,1.127-4.142-0.372-6.029C117.634,57.937,116.53,56.814,114.864,57.072z"/>
		<g>
			<path fill="none" d="M24.975,69.061c0.263,0,0.56-0.055,0.908-0.187c-0.751-3.694-1.018-7.428-0.994-11.187
				c-0.129-0.174-0.271-0.341-0.44-0.497c-0.398-0.175-0.643-0.442-0.789-0.767c-2.559,2.555-6.182,1.841-9.272,2.692
				c-6.589,1.814-6.631,1.664-5.321,7.857c0.276,0.018,0.547,0.002,0.82-0.001c2.285,1.792,15.124,3.042,15.124,3.042L24.975,69.061
				z"/>
			<path fill="none" d="M41.276,68.353c0.061,0.049,0.121,0.101,0.182,0.15c0.003-0.01,0.008-0.019,0.011-0.029
				c-0.039-0.039-0.076-0.078-0.115-0.117l0.157,0.009c0.083-0.222,0.167-0.442,0.257-0.66l-0.394-10.602l-5.855,0.277
				c-0.024,0.07-0.044,0.139-0.071,0.209l-5.916,0.28v7.09c0.354,0.243,0.659,0.568,0.917,0.97c0.256,0.583,0.343,1.19,0.333,1.812
				L41.276,68.353z"/>
			<path fill="none" d="M29.667,54.833c0.326,1.451,5.398-0.464,6.167,0.833c6.19-1.755,5.329-4.432,5.233-9.156
				c-0.179-0.009-0.358-0.013-0.535-0.004c-1.142-0.149-2.275-0.59-3.405-0.504c-2.159,0.162-8.001-3.324-7.793-0.461
				C29.5,47.833,29.058,52.118,29.667,54.833z"/>
			<polygon fill="none" points="40.904,71.963 40.904,71.963 40.903,71.963 			"/>
			<path fill="none" d="M50.796,56.293c1.726,0-0.129,0.104-0.129-1.46s0.236-3.407-1.042-2.247
				c-0.938,0.851-1.187,1.837-1.312,2.788C48.174,56.423,49.07,56.293,50.796,56.293z"/>
			<path fill="none" d="M102.973,54.979c-1.008,0.024-13.513,4.215-18.287,7.409c0.167,0.225,0.35,0.408,0.539,0.571
				c0.002,0.011,15.143,4.332,19.959,4.033c0.358,0.081,0.718,0.133,1.078,0.171c0.246-0.72,3.821-7.623,3.821-7.623
				C111.541,54.622,105.562,54.25,102.973,54.979z"/>
			<path fill="none" d="M114.864,57.072c-1.552,0.24-1.893,1.671-2.318,2.895c-0.881,2.532-1.22,5.36-3.381,7.167
				c2.543,0.086,5.029,0.592,7.526,1.049c0.15,0.054,0.291,0.12,0.436,0.182c0.34-1.205,1.303-2.105,1.8-3.237
				c0.914-2.08,1.127-4.142-0.372-6.029C117.634,57.937,116.53,56.814,114.864,57.072z"/>
			<path fill="none" d="M51.937,68.953C51.938,68.953,51.938,68.952,51.937,68.953c-1.098-1.594-0.732-3.521-1.212-5.246
				c-0.466-1.673-1.572-3.292-3.348-3.217c-2.335,0.098-1.16,2.268-1.349,3.531c-0.193,1.293-0.021,2.641-0.008,3.963
				c-1.387,1.092-1.164,2.495-0.76,3.932c1.796-1.48,3.832,0.122,5.707-0.446c1.438-0.436,1.709-1.269,0.972-2.517
				C51.938,68.953,51.938,68.953,51.937,68.953z"/>
			<path fill="none" d="M49.25,73.18L41.966,73h-5.674c-0.25-0.139-0.501-0.282-0.747-0.446c0.101-0.066,0.199-0.112,0.299-0.169
				c-0.468,0.011-1.006-0.001-1.656-0.055c-0.166-0.014-0.255,0.206-0.384,0.305h-5.438c-0.233,0.11-0.476,0.207-0.734,0.286
				c-1.279-0.016-2.58-0.041-3.622,0.031c-0.097,0.025-0.196,0.039-0.297,0.049c0,0,0.297-0.049-1.213,0
				c-1.667,0.055-1,3.152-1,3.152h3.648c0.246,0.547,0.47,0.949,0.771,0.909l5.798,7.271l8.109-6.906l-2.682-0.038
				c-0.543-0.524-1.375-0.484-2.078-0.336c-1.813,0.381-4.397-1.068-5.627,0.227l-3.004-0.042l-0.516-0.176
				c0.146-0.02,0.309-0.136,0.502-0.395c0.142-0.19,0.284-0.36,0.426-0.515h15.337c2.906,0.458,5.983,1.208,9.726,0.502
				C50.644,76.083,50.5,73.435,49.25,73.18z"/>
			<path fill="none" d="M96.133,68.125c-1.28-0.411-13.246-4.205-13.301-4.191c-8.476-1.864-16.744-4.625-25.405-5.716
				c-2.333-0.293-3.383,1.154-4.47,2.521c-1.085,1.364,0.307,2.242,1.262,2.639c1.661,0.688,1.423-0.473,1.187-1.551
				c-0.402-1.833,0.936-1.808,2.117-1.84c0.42-0.011,0.837,0.015,1.204,0.106c0.05,0.012,0.1,0.023,0.15,0.036
				c0.652,0.207,1.093,0.679,0.965,1.68c-0.192,1.516-0.253,2.231,1.649,1.527c2.182-0.808,2.551,0.688,2.521,2.412
				c-0.033,1.882-0.88,2.329-2.561,1.531c-0.597-0.284-1.566-0.366-1.718,0.342c-0.156,0.726,0.202,1.622,0.51,2.373
				c0.356,0.867,1.262,1.093,1.854,0.733L99,70.015C99,70.015,99.641,69.25,96.133,68.125z"/>
			<path fill="#E6E6E6" d="M117.41,54.402c-3.071-1.457-6.505-1.897-10.064-1.804c-9.063,0.237-16.698,4.276-24.342,8.434
				c-1.075,0.409-2.04,0.672-3.326,0.376c-6.424-1.482-12.653-3.829-19.282-4.405c-2.231-0.193-4.51,0.167-5.047-3.289
				c-0.218-1.397-2.745-2.443-4.6-2.333c-1.816,0.106-2.629,1.352-2.879,3.378c-0.422,3.438-1.899-0.1-2.864,0.228
				c0.002-2.996,0.004-5.993,0.006-8.988c0,0,0,0,0,0c0.816-0.04,1.574-0.198,2.005-1.006c-5.146-2.744-10.726-3.061-16.393-3
				c-5.136,0.056-10.273,0.012-15.673,0.012c3.966-3.238,18.408-2.661,36.058,1.23c-0.532,1.434-2.559,0.29-3.001,1.752
				c1.459,0.709,2.524,2.238,4.43,2.026c1.592-0.177,3.706,0.382,4.094-1.828c0.34-1.934-1.689-2.246-2.979-2.795
				c-1.817-0.774-3.838-0.849-5.759-1.395c-9.625-2.732-19.555-3.201-29.441-2.402c-2.279,0.184-7.462-1.441-6.903,3.223
				c0.481,4.019,5.005,1.625,7.7,2.142c2.094,0.4,5.042-0.896,4.907,3.025c0.092,0.727,1.245,5.079,0.017,7.705
				c-0.897,0.051-2.101,0.223-2.6,0.184c-4.283-0.331-8.11,1.539-12.131,2.346c-3.663,0.734-3.661-0.549-2.823-3.205
				c0.776-2.46,0.704-4.733-2.107-7.516c-1.81,11.6-3.487,22.139-0.424,32.758c2.159-2.563,2.974-5.198,2.229-8.33
				C5.997,70.004,4.475,67.127,8,67.958c2.369,1.786,9.004,6.631,13.633,11.299h0l0.005,0.006c0.929,0.938,1.775,1.866,2.491,2.763
				l4.979,5.521l0.559,0.62l-3.132-0.294c0.603,2.326,3.719,4.39,5.183,3.96c2.348-0.689,3.555-1.107,4.976-4.216l-4.976-0.701
				L42.833,78.5l0.288,0.823c2.036-0.466,4.723-0.033,8.954,0.241c1.15,0.074,2.444-0.077,2.433-0.999
				c-0.059-4.883,3.449-3.434,6.019-3.562c4.463-0.225,8.9-0.07,13.39-0.815c4.494-0.745,9.028-0.544,13.366,2.242
				c3.523,2.263,7.609,4.138,12.198,3.585c1.375-0.166,2.819-0.228,3.073-1.887c0.228-1.485-1.062-1.787-2.177-2.23
				c-2.52-1.003-4.99-2.126-8.216-3.516c7.469-1.281,13.971,0.534,20.464,0.986c3.595,0.25,5.252-0.308,6.408-3.353v0
				C124.912,64.742,124.299,57.67,117.41,54.402z M48.312,55.375c0.125-0.951,0.375-1.938,1.312-2.788
				c1.278-1.16,1.042,0.683,1.042,2.247s1.855,1.46,0.129,1.46S48.174,56.423,48.312,55.375z M29.833,66.958
				c-0.257-0.402,0.055-1.753-0.3-1.997v-7.09l11.842-0.767l0.394,10.602c-0.09,0.218-0.174,0.438-0.257,0.66l-0.157-0.009
				c0.039,0.039,0.076,0.078,0.115,0.117c-0.003,0.01-0.008,0.02-0.011,0.029c-0.061-0.05-0.121-0.101-0.182-0.15l-10.494-0.609
				C30.793,67.121,30.089,67.541,29.833,66.958z M41.16,45.542c0.131,2.869,0.609,8.083,0.609,9.25
				c-1.977,0.167-11.919,0.737-12.102,0.041c-0.339-1.291-0.167-7-0.333-9.292C29.125,42.679,40.98,45.534,41.16,45.542z
				 M9.066,66.973c-1.31-6.194-1.268-6.043,5.321-7.857c3.09-0.851,9.662-2.1,10.061-1.925c0.169,0.155,0.312,0.323,0.44,0.497
				c-0.024,3.759,0.243,7.493,0.994,11.187c-0.348,0.131-0.873,1.141-0.873,1.141s-12.839-1.251-15.124-3.042
				C9.613,66.975,9.342,66.991,9.066,66.973z M42.185,76.152H26.848c-0.142,0.154-0.284,0.324-0.426,0.515
				c-0.193,0.259-0.356,0.375-0.502,0.395l0.516,0.176l3.004,0.042c1.229-1.295,3.814,0.154,5.627-0.227
				c0.703-0.148,1.535-0.188,2.078,0.336l2.682,0.038l-8.109,6.906l-5.798-7.271c-0.302,0.04-0.526-0.362-0.771-0.909H21.5
				c0,0-0.667-3.098,1-3.152c1.511-0.049,26.75,0.18,26.75,0.18c1.25,0.255,1.394,2.903,2.661,3.475
				C48.168,77.36,45.091,76.61,42.185,76.152z M50.967,71.47c-1.875,0.568-5.633-2.221-5.633-2.221
				c-0.013-1.323,0.074-5.012,0.083-5.208c0.038-0.75-0.375-3.453,1.959-3.551c1.776-0.074,2.881,1.544,3.348,3.217
				c0.48,1.725,1.837,3.458,1.837,3.458c0,0,3.063-0.002,3.063-0.002c0.352,0.596-0.688,2.849,0.25,3.727
				C56.125,71.125,51.718,71.242,50.967,71.47z M99,70.015l-38.625,0.693c-0.592,0.36-0.209-0.535-0.131-0.714
				c0.394-0.911-0.666-1.647-0.51-2.373c0.152-0.708,1.121-0.625,1.718-0.342c1.681,0.798,2.527,0.352,2.561-1.531
				c0.03-1.724-0.339-3.219-2.521-2.412c-1.902,0.704-1.841-0.012-1.649-1.527c0.127-1-0.313-1.473-0.965-1.68
				c-0.05-0.013-0.1-0.023-0.15-0.036c-0.367-0.091-0.784-0.117-1.204-0.106c-1.182,0.032-2.519,0.007-2.117,1.84
				c0.236,1.078,0.474,2.239-1.187,1.551c-0.955-0.396-2.347-1.274-1.262-2.639c1.087-1.367,2.137-2.814,4.47-2.521
				c8.661,1.09,16.93,3.852,25.405,5.716c0.055-0.014,12.021,3.78,13.301,4.191C99.641,69.25,99,70.015,99,70.015z M105.184,66.993
				c-4.816,0.298-19.957-4.022-19.959-4.033c-0.189-0.163-0.372-0.346-0.539-0.571c4.774-3.194,17.279-7.385,18.287-7.409
				c2.59-0.729,8.568-0.358,7.11,4.562c0,0-3.575,6.902-3.821,7.623C105.901,67.125,105.542,67.073,105.184,66.993z M118.927,65.127
				c-0.497,1.131-1.46,2.032-1.8,3.237c-0.145-0.062-0.285-0.128-0.436-0.182c-2.497-0.457-4.983-0.963-7.526-1.049
				c2.161-1.807,2.5-4.635,3.381-7.167c0.426-1.224,0.767-2.655,2.318-2.895c1.666-0.258,2.77,0.865,3.69,2.026
				C120.054,60.985,119.841,63.048,118.927,65.127z"/>
		</g>
	</g>
</g>
<g id="Layer_3" display="none">
	
		<image display="inline" overflow="visible" width="123" height="146" xlink:href="cc_2c.png"  transform="matrix(0.9999 0 0 0.9999 0 2.0234)">
	</image>
</g>
<g id="Layer_2">
</g>
</svg>
