<?xml version="1.0" encoding="utf-8"?>
<!-- Generator: Adobe Illustrator 16.0.0, SVG Export Plug-In . SVG Version: 6.00 Build 0)  -->
<!DOCTYPE svg PUBLIC "-//W3C//DTD SVG 1.1//EN" "http://www.w3.org/Graphics/SVG/1.1/DTD/svg11.dtd">
<svg version="1.1" id="Layer_1" xmlns="http://www.w3.org/2000/svg" xmlns:xlink="http://www.w3.org/1999/xlink" x="0px" y="0px"
	 width="360px" height="206px" viewBox="0 0 360 206" enable-background="new 0 0 360 206" xml:space="preserve">
<path fill-rule="evenodd" clip-rule="evenodd" d="M311.453,295.92c0.269-4.354,0.233-8.381,0.806-12.32
	c3.437-23.674,16.559-40.752,37.189-51.854c15.676-8.437,32.84-11.675,50.319-7.335c20.442,5.074,36.664,16.026,45.02,36.593
	c4.625,11.385,7.95,23.024,8.384,35.257c0.422,11.904-3.062,23.079-8.939,33.349c-10.229,17.877-25.346,30.194-45.254,35.193
	c-18.883,4.742-37.927,4.097-54.618-7.47c-17.569-12.174-30.114-28.124-32.664-50.3c-0.096-0.826-0.224-1.654-0.231-2.483
	C311.437,301.551,311.453,298.552,311.453,295.92z M315.441,292.986c-1.371,19.249,3.482,33.804,15.452,47.226
	c3.095,3.471,6.653,6.525,9.979,9.79c7.548,7.408,17.144,10.667,27.075,12.975c9.099,2.114,18.359,0.838,27.151-1.328
	c28.613-7.047,51.471-29.628,54.038-60.777c1.811-21.973-5.303-42.393-20.87-57.977c-12.478-12.49-29.101-17.432-47.186-16.115
	c-8.743,0.636-16.993,2.899-25.214,5.749c-15.213,5.273-25.478,15.993-32.871,29.696
	C317.629,272.175,314.74,282.913,315.441,292.986z"/>
<path fill-rule="evenodd" clip-rule="evenodd" fill="none" d="M315.441,292.986c-0.701-10.073,2.188-20.812,7.556-30.762
	c7.394-13.703,17.658-24.423,32.871-29.696c8.221-2.85,16.471-5.113,25.214-5.749c18.085-1.316,34.708,3.625,47.186,16.115
	c15.567,15.584,22.681,36.004,20.87,57.977c-2.567,31.149-25.425,53.73-54.038,60.777c-8.792,2.166-18.053,3.442-27.151,1.328
	c-9.932-2.308-19.527-5.566-27.075-12.975c-3.326-3.265-6.885-6.319-9.979-9.79C318.924,326.79,314.07,312.235,315.441,292.986z
	 M319.885,292.159c-0.785,29.077,9.661,43.772,28.858,57.595c14.593,10.507,31.638,10.862,48.399,6.597
	c17.555-4.467,30.865-15.313,39.754-31.171c5.557-9.911,8.478-20.577,7.557-32.091c-0.75-9.382-3.242-18.297-6.729-27.014
	c-7.85-19.622-22.986-29.817-43.082-33.735c-14.173-2.763-27.594,0.05-40.246,6.296c-11.253,5.555-20.486,13.754-26.636,24.831
	C322.349,273.215,319.392,283.751,319.885,292.159z"/>
<path fill-rule="evenodd" clip-rule="evenodd" d="M319.885,292.159c-0.493-8.408,2.464-18.944,7.875-28.692
	c6.149-11.077,15.383-19.276,26.636-24.831c12.652-6.246,26.073-9.059,40.246-6.296c20.096,3.918,35.232,14.113,43.082,33.735
	c3.487,8.717,5.979,17.632,6.729,27.014c0.921,11.514-2,22.18-7.557,32.091c-8.889,15.857-22.199,26.704-39.754,31.171
	c-16.762,4.266-33.807,3.91-48.399-6.597C329.546,335.932,319.1,321.236,319.885,292.159z M323.336,293.111
	c-2.006,24.374,9.116,40.934,26.839,53.723c13.962,10.075,29.738,10.249,45.819,6.267c9.943-2.463,18.261-7.967,25.821-14.646
	c12.811-11.315,19.44-25.875,19.606-42.688c0.133-13.496-4.246-26.23-11.532-37.723c-2.213-3.49-4.519-7.24-7.671-9.759
	c-11.648-9.305-24.838-14.476-40.102-13.544c-8.086,0.494-15.682,2.616-23.283,5.224c-13.245,4.545-22.121,13.915-28.629,25.689
	C325.314,274.5,322.704,284.142,323.336,293.111z"/>
<path fill-rule="evenodd" clip-rule="evenodd" fill="none" d="M323.336,293.111c-0.632-8.97,1.979-18.611,6.869-27.457
	c6.508-11.774,15.384-21.145,28.629-25.689c7.602-2.607,15.197-4.729,23.283-5.224c15.264-0.932,28.453,4.239,40.102,13.544
	c3.152,2.519,5.458,6.269,7.671,9.759c7.286,11.492,11.665,24.227,11.532,37.723c-0.166,16.813-6.796,31.373-19.606,42.688
	c-7.561,6.679-15.878,12.183-25.821,14.646c-16.081,3.982-31.857,3.809-45.819-6.267
	C332.452,334.045,321.33,317.485,323.336,293.111z M400.032,321.466c-0.003,0.182-0.005,0.364-0.007,0.547
	c-3.823,0.185-7.644,0.448-11.469,0.539c-8.461,0.2-8.32,0.163-8.426-8.2c-0.037-2.973,1.03-4.654,3.624-5.772
	c2.136-0.921,4.133-2.17,6.276-3.071c10.114-4.252,16.576-12.021,20.969-21.743c3.927-8.692,1.71-18.29-5.524-24.376
	c-6.846-5.757-15.128-6.555-23.168-4.792c-8.298,1.818-15.991,5.74-20.57,13.676c-0.515,0.892-0.49,2.096-0.716,3.155
	c1.07,0.142,2.143,0.417,3.211,0.399c2.99-0.048,5.979-0.194,8.968-0.346c2.237-0.113,3.292,0.709,3.358,3.141
	c0.262,9.643,0.543,19.288,1.118,28.914c0.224,3.734-1.495,5.196-4.625,6.54c-5.944,2.554-11.692,5.57-17.47,8.498
	c-0.679,0.345-1.024,1.344-1.525,2.038c0.787,0.021,1.672,0.286,2.346,0.021c4.945-1.956,9.79-4.18,14.78-6.009
	c7.198-2.638,6.171-3.719,6.595,4.823c0.15,3.017-0.898,4.108-3.917,4.226c-4.812,0.188-9.612,0.77-14.411,1.245
	c-4.956,0.491-9.903,1.076-14.859,1.576c-3.181,0.321-3.412,2.008-2.26,4.505c2.397,5.19,6.277,8.923,11.229,11.647
	c10.856,5.972,22.689,8.24,34.759,7.006c14.982-1.531,26.495-9.071,33.269-23.065c1.22-2.519,0.588-3.796-1.735-4.515
	c-1.382-0.427-2.896-0.562-4.353-0.581C410.344,321.425,405.188,321.466,400.032,321.466z M420.531,275.336
	c-2.011,2.25-3.274,3.664-4.538,5.078c1.507,1.254,3.01,3.479,4.522,3.485c1.482,0.007,2.976-2.242,4.464-3.502
	C423.741,278.988,422.503,277.579,420.531,275.336z M419.679,267.298c2.143-2.436,4.131-3.707,4.479-5.331
	c0.479-2.229-1.465-3.485-3.759-3.544c-2.356-0.06-4.724,0.701-4.555,3.313C415.946,263.299,417.833,264.746,419.679,267.298z"/>
<path fill-rule="evenodd" clip-rule="evenodd" d="M400.032,321.466c5.155,0,10.312-0.041,15.467,0.025
	c1.457,0.019,2.971,0.154,4.353,0.581c2.323,0.719,2.955,1.996,1.735,4.515c-6.773,13.994-18.286,21.534-33.269,23.065
	c-12.069,1.234-23.902-1.034-34.759-7.006c-4.952-2.725-8.832-6.457-11.229-11.647c-1.152-2.497-0.921-4.184,2.26-4.505
	c4.956-0.5,9.903-1.085,14.859-1.576c4.799-0.476,9.599-1.057,14.411-1.245c3.019-0.117,4.067-1.209,3.917-4.226
	c-0.424-8.542,0.604-7.461-6.595-4.823c-4.99,1.829-9.835,4.053-14.78,6.009c-0.674,0.266-1.559,0-2.346-0.021
	c0.501-0.694,0.847-1.693,1.525-2.038c5.777-2.928,11.525-5.944,17.47-8.498c3.13-1.344,4.849-2.806,4.625-6.54
	c-0.575-9.626-0.856-19.271-1.118-28.914c-0.066-2.432-1.121-3.254-3.358-3.141c-2.988,0.151-5.978,0.298-8.968,0.346
	c-1.068,0.018-2.141-0.258-3.211-0.399c0.226-1.06,0.201-2.264,0.716-3.155c4.579-7.936,12.272-11.857,20.57-13.676
	c8.04-1.763,16.322-0.965,23.168,4.792c7.234,6.086,9.451,15.684,5.524,24.376c-4.393,9.722-10.854,17.491-20.969,21.743
	c-2.144,0.901-4.141,2.15-6.276,3.071c-2.594,1.118-3.661,2.8-3.624,5.772c0.105,8.363-0.035,8.4,8.426,8.2
	c3.825-0.091,7.646-0.354,11.469-0.539C400.027,321.83,400.029,321.647,400.032,321.466z M380.29,296.965
	c0,2.077-0.112,4.42,0.091,6.735c0.043,0.491,1.509,1.418,1.867,1.239c10.644-5.313,20.008-11.989,24.631-23.619
	c2.782-6.999,1.094-14.131-4.607-18.928c-8.462-7.121-29.37-4.532-34.794,4.344c-0.222,0.364-0.141,1.303,0.144,1.518
	c1.222,0.921,7.792-0.096,8.656-1.216c0.455-0.591,0.937-1.162,1.406-1.743c0.342,0.835,0.934,1.653,0.985,2.506
	C379.252,277.434,379.754,287.073,380.29,296.965z M357.418,328.621c0,0.097,0.001,0.192,0.002,0.289
	c-3.322,0-6.654-0.144-9.966,0.051c-2.115,0.124-3.273,1.355-1.253,3.114c3.108,2.705,6.155,5.703,9.749,7.58
	c9.487,4.954,19.905,7.138,30.463,6.246c12.763-1.078,23.669-6.342,30.455-18.015c0.48-0.827,0.709-1.8,1.056-2.704
	c-0.912-0.141-1.836-0.454-2.735-0.396C395.93,326.04,376.674,327.335,357.418,328.621z"/>
<path fill-rule="evenodd" clip-rule="evenodd" d="M420.531,275.336c1.972,2.243,3.21,3.652,4.448,5.062
	c-1.488,1.26-2.981,3.509-4.464,3.502c-1.513-0.007-3.016-2.231-4.522-3.485C417.257,279,418.521,277.586,420.531,275.336z"/>
<path fill-rule="evenodd" clip-rule="evenodd" d="M419.679,267.298c-1.846-2.552-3.732-3.999-3.834-5.562
	c-0.169-2.612,2.198-3.373,4.555-3.313c2.294,0.059,4.237,1.315,3.759,3.544C423.81,263.591,421.821,264.862,419.679,267.298z"/>
<path fill-rule="evenodd" clip-rule="evenodd" fill="none" d="M380.29,296.965c-0.536-9.892-1.038-19.531-1.621-29.164
	c-0.052-0.853-0.644-1.671-0.985-2.506c-0.47,0.581-0.951,1.152-1.406,1.743c-0.864,1.12-7.435,2.137-8.656,1.216
	c-0.284-0.215-0.365-1.153-0.144-1.518c5.424-8.876,26.332-11.465,34.794-4.344c5.701,4.797,7.39,11.929,4.607,18.928
	c-4.623,11.63-13.987,18.306-24.631,23.619c-0.358,0.179-1.824-0.748-1.867-1.239C380.178,301.385,380.29,299.042,380.29,296.965z"
	/>
<path fill-rule="evenodd" clip-rule="evenodd" fill="none" d="M357.418,328.621c19.256-1.286,38.512-2.581,57.771-3.834
	c0.899-0.059,1.823,0.255,2.735,0.396c-0.347,0.904-0.575,1.877-1.056,2.704c-6.786,11.673-17.692,16.937-30.455,18.015
	c-10.558,0.892-20.976-1.292-30.463-6.246c-3.594-1.877-6.641-4.875-9.749-7.58c-2.021-1.759-0.862-2.99,1.253-3.114
	c3.312-0.194,6.644-0.051,9.966-0.051C357.419,328.813,357.418,328.718,357.418,328.621z"/>
<path fill-rule="evenodd" clip-rule="evenodd" d="M99.259,133.419c-0.925-1.837-0.728-3.397-0.35-4.938
	c2.049-8.374,4.221-16.72,6.155-25.121c1.384-6.011,2.462-12.092,3.67-18.143c0.049-0.246,0.038-0.504,0.065-0.923
	c-0.546,0.098-0.977,0.174-1.408,0.251c-6.403,1.153-12.174,3.89-17.693,7.194c-1.923,1.152-3.772,2.476-4.906,4.553
	c-0.249,0.456-0.522,1.212-1.388,0.83c-0.949-0.419-1.519-1.304-1.284-2.167c0.47-1.723,1.607-3.016,3.069-3.888
	c3.254-1.94,6.556-3.811,9.916-5.562c4.004-2.086,8.264-3.469,12.766-4.009c1.136-0.136,1.576-0.68,1.534-1.829
	c-0.057-1.532,0.319-2.027,1.259-2.003c1.035,0.027,1.962,1.031,1.853,2.22c-0.099,1.082,0.39,1.334,1.318,1.358
	c3.001,0.08,5.963,0.407,8.809,1.462c2.714,1.006,5.063,2.531,6.982,4.711c1.773,2.015,1.818,3.976,0.211,6.13
	c-2.589,3.473-5.943,6.071-9.497,8.452c-1.083,0.726-2.119,1.551-3.276,2.129c-0.821,0.409-1.802,0.605-2.727,0.666
	c-0.844,0.055-1.146-0.784-0.577-1.446c0.296-0.343,0.691-0.604,1.054-0.886c3.09-2.399,6.222-4.747,9.254-7.216
	c1.15-0.937,2.123-2.11,3.084-3.252c1.229-1.46,1.148-2.65-0.304-3.897c-2.667-2.291-5.84-3.485-9.286-3.964
	c-1.25-0.173-2.525-0.146-3.785-0.262c-1.152-0.106-1.652,0.427-1.866,1.519c-0.972,4.964-1.873,9.946-3.019,14.871
	c-2.449,10.524-4.875,21.059-8.497,31.264C100.184,132.132,99.727,132.655,99.259,133.419z"/>
<path fill-rule="evenodd" clip-rule="evenodd" d="M239.524,98.491c-0.497,1.494-0.916,2.748-1.33,4.004
	c-0.108,0.328-0.166,0.675-0.304,0.988c-0.32,0.727-0.803,1.575-1.64,1.271c-0.561-0.203-1.177-1.066-1.226-1.677
	c-0.079-0.992,0.281-2.019,0.467-3.029c0.163-0.888,0.341-1.773,0.543-2.822c-3.048,0.797-5.849,1.542-8.658,2.259
	c-0.896,0.229-0.991,0.849-0.891,1.595c0.189,1.406,0.408,2.808,0.579,4.216c0.105,0.87-0.146,1.624-1.005,2.005
	c-0.884,0.393-1.695,0.136-2.27-0.576c-0.224-0.275-0.338-0.899-0.179-1.182c0.866-1.527,0.086-2.981-0.12-4.451
	c-0.018-0.126-0.584-0.305-0.848-0.246c-2.055,0.465-4.104,0.959-6.143,1.494c-1.129,0.297-1.739,1.173-2.219,2.182
	c-0.771,1.626-1.57,3.238-2.385,4.843c-0.386,0.761-0.908,1.377-1.901,1.021c-1.073-0.384-1.054-1.302-0.796-2.109
	c0.454-1.42,1.139-2.766,1.593-4.185c0.204-0.639,0.238-1.421,0.073-2.067c-0.227-0.892,0.073-1.214,0.839-1.556
	c0.568-0.254,1.221-0.725,1.453-1.264c1.636-3.799,3.288-7.599,4.691-11.487c0.738-2.045,2.226-2.84,4.045-3.311
	c0.997-0.258,1.43,0.521,1.629,1.377c0.729,3.133,1.465,6.264,2.161,9.404c0.319,1.442,0.496,1.662,1.92,1.358
	c3.03-0.647,6.089-1.207,8.825-2.816c1.308-0.769,2.472-0.433,3.402,0.815c0.885,1.188,1.762,2.381,2.749,3.718
	c0.679-1.401,1.271-2.632,1.87-3.859c0.333-0.682,0.688-1.34,1.646-0.97c0.903,0.349,1.313,1.082,0.996,1.926
	c-0.819,2.184-1.723,4.34-2.698,6.459c-0.378,0.822-1.298,0.842-2.137,0.056c-0.692-0.649-1.24-1.453-1.844-2.195
	C240.163,99.371,239.933,99.04,239.524,98.491z M216.866,99.133c0.072,0.105,0.145,0.211,0.217,0.316
	c1.852-0.537,3.71-1.051,5.543-1.644c0.199-0.064,0.386-0.597,0.352-0.886c-0.284-2.414-0.622-4.82-0.943-7.229
	c-0.124-0.021-0.249-0.041-0.374-0.062C220.062,92.798,218.465,95.965,216.866,99.133z"/>
<path fill-rule="evenodd" clip-rule="evenodd" d="M148.636,99.631c-1.201-0.424-1.5-0.248-1.767,0.858
	c-0.572,2.377-1.143,4.755-1.769,7.118c-0.224,0.845-0.625,1.629-1.765,1.331c-0.958-0.251-1.433-1.138-1.146-2.296
	c0.487-1.972,0.997-3.938,1.559-5.889c0.275-0.957-0.032-1.353-0.983-1.459c-0.604-0.068-1.261-0.153-1.766-0.449
	c-0.466-0.273-0.763-0.837-1.134-1.273c0.474-0.335,0.914-0.878,1.429-0.963c1.049-0.174,2.14-0.108,3.213-0.128
	c3.681-0.069,7.361-0.173,11.042-0.159c0.685,0.002,1.586,0.306,2.001,0.797c0.764,0.903,0.063,2.011-1.161,1.983
	c-1.11-0.025-2.219-0.133-3.328-0.2c-0.89-0.054-1.559,0.12-1.344,1.263c0.041,0.214,0.015,0.476-0.074,0.674
	c-1.141,2.548-1.121,5.303-1.44,7.997c-0.105,0.883-0.232,1.793-1.38,1.74c-1.058-0.048-1.565-0.864-1.58-1.805
	c-0.02-1.219,0.091-2.455,0.29-3.659C147.838,103.269,148.265,101.447,148.636,99.631z"/>
<path fill-rule="evenodd" clip-rule="evenodd" d="M142.077,100.493c-0.271,1.608-1.162,2.165-2.305,2.503
	c-1.579,0.468-3.132,1.022-4.716,1.473c-0.918,0.261-1.242,0.789-1.095,1.698c0.11,0.681,0.192,1.368,0.259,2.055
	c0.067,0.69,0.195,1.455-0.717,1.705c-0.963,0.264-1.664-0.188-2.06-1.036c-0.221-0.475-0.259-1.033-0.391-1.553
	c-0.28-1.105-0.67-1.359-1.593-0.698c-1.004,0.719-1.841,1.677-2.731,2.552c-0.324,0.318-0.525,0.87-0.896,1.006
	c-0.512,0.187-1.264,0.294-1.667,0.041c-0.404-0.253-0.779-1.046-0.684-1.503c0.237-1.145,0.573-2.341,1.181-3.323
	c1.512-2.444,3.166-4.803,4.83-7.148c0.656-0.924,1.414-1.962,2.793-1.557c1.364,0.401,1.293,1.661,1.385,2.759
	c0.207,2.485,0.192,2.474,2.617,1.84c1.149-0.3,2.303-0.603,3.473-0.792C140.482,100.398,141.238,100.493,142.077,100.493z
	 M130.889,100.051c-0.553,1.093-1.052,2.08-1.58,3.123C131.458,103.157,131.684,102.706,130.889,100.051z"/>
<path fill-rule="evenodd" clip-rule="evenodd" d="M261.204,91.906c1.299,1.372,1.416,2.629,0.604,4.063
	c-1.075,1.898-2.029,3.865-3.09,5.771c-0.777,1.4-1.716,1.644-3.181,0.962c-1.585-0.739-2.707-1.979-3.685-3.378
	c-0.369-0.528-0.72-1.07-1.248-1.858c-0.43,1.38-0.786,2.518-1.139,3.657c-0.17,0.549-0.199,1.207-0.534,1.621
	c-0.393,0.486-1.126,1.128-1.568,1.034c-0.536-0.115-1.072-0.867-1.323-1.462c-0.197-0.468-0.062-1.147,0.098-1.682
	c0.6-2.016,1.28-4.008,1.909-6.015c0.301-0.96,0.953-1.423,1.92-1.557c0.962-0.132,1.658,0.27,2.119,1.057
	c0.735,1.254,1.414,2.542,2.119,3.814c0.167,0.301,0.317,0.616,0.519,0.893c0.969,1.326,1.627,1.283,2.388-0.146
	c0.864-1.622,1.689-3.266,2.604-4.859C260.104,93.144,260.679,92.571,261.204,91.906z"/>
<path fill-rule="evenodd" clip-rule="evenodd" d="M181.888,100.976c0.398,0,0.797,0.019,1.193-0.005
	c0.42-0.026,0.883-0.231,1.246-0.112c0.729,0.239,1.76,0.489,1.996,1.028c0.223,0.51-0.239,1.543-0.703,2.089
	c-1.312,1.542-2.786,2.947-4.181,4.42c-0.611,0.646-1.232,0.699-1.92,0.148c-0.677-0.542-1.034-1.213-0.464-1.984
	c0.612-0.826,1.343-1.564,2.109-2.441c-0.728-0.286-1.47-0.528-2.169-0.86c-2.138-1.013-2.248-2.396-0.313-3.703
	c2.154-1.456,4.493-2.528,7.067-2.888c1.097-0.154,2.265,0.085,3.386,0.249c0.849,0.124,1.295,0.721,1.069,1.582
	c-0.214,0.815-0.935,1.075-1.642,0.851C186.014,98.541,184.009,99.926,181.888,100.976z"/>
<path fill-rule="evenodd" clip-rule="evenodd" d="M160.835,100.636c-0.032,0.122-0.086,0.382-0.169,0.633
	c-0.717,2.18-1.438,4.358-2.162,6.536c-0.108,0.326-0.154,0.734-0.378,0.947c-0.332,0.313-0.799,0.666-1.206,0.663
	c-0.345-0.003-0.841-0.421-0.99-0.774c-0.19-0.453-0.24-1.064-0.107-1.54c0.671-2.394,1.425-4.765,2.141-7.147
	c0.241-0.804,0.714-1.254,1.6-1.123C160.521,98.975,160.755,99.675,160.835,100.636z"/>
<path fill-rule="evenodd" clip-rule="evenodd" d="M188.443,87.927c1.325-0.027,2.158,1.361,1.539,2.395
	c-0.348,0.58-0.826,1.111-1.339,1.555c-0.811,0.702-1.834,0.39-1.796-0.631c0.038-1.01,0.561-2.014,0.949-2.989
	C187.879,88.053,188.31,87.99,188.443,87.927z"/>
<path fill-rule="evenodd" clip-rule="evenodd" d="M163.541,88.257c-0.054,0.799-0.541,1.219-1.263,1.202
	c-0.879-0.021-1.237-0.657-1.296-1.474c-0.064-0.888,0.448-1.266,1.248-1.294C163.309,86.655,163.358,87.517,163.541,88.257z"/>
</svg>
